<svg width="70" height="50" viewBox="0 0 70 50" fill="none" xmlns="http://www.w3.org/2000/svg">
<path d="M18.4667 0.00524902H51.5334C56.5467 0.00524902 60.6 4.06425 60.6 9.08458V40.9157C60.6 45.936 56.5467 49.995 51.5334 49.995H18.4667C13.4534 49.995 9.40002 45.936 9.40002 40.9157V9.08458C9.40002 4.06425 13.4534 0.00524902 18.4667 0.00524902Z" fill="#330000"/>
<path d="M34.2106 29.999H26.2746L24.6533 35.0193C24.6106 35.2116 24.44 35.3398 24.248 35.3184H20.2373C20.0026 35.3184 19.9386 35.1902 20.0026 34.9339L26.872 15.1302C26.936 14.9166 27 14.6816 27.0853 14.4252C27.1706 13.9766 27.2133 13.5066 27.2133 13.0366C27.192 12.9298 27.2773 12.823 27.384 12.8016H32.9093C33.08 12.8016 33.1653 12.8657 33.1866 12.9725L40.9733 34.9766C41.0373 35.2116 40.9733 35.3184 40.76 35.3184H36.3013C36.152 35.3398 36.0026 35.2329 35.96 35.0834L34.2106 29.999ZM27.512 25.6623H32.9306C32.8026 25.2136 32.632 24.6795 32.44 24.1241C32.248 23.5473 32.056 22.9278 31.864 22.2869C31.6506 21.6246 31.4586 20.9837 31.2453 20.3215C31.032 19.6592 30.84 19.0397 30.6693 18.4201C30.4986 17.822 30.3493 17.2665 30.2 16.7538H30.1573C29.9653 17.6724 29.7306 18.5911 29.432 19.5097C29.112 20.5351 28.792 21.6033 28.4506 22.6714C28.152 23.7609 27.832 24.765 27.512 25.6623ZM45.624 16.4547C44.92 16.4761 44.2373 16.1984 43.7253 15.707C43.2346 15.1729 42.9786 14.468 43 13.7416C42.9786 13.0153 43.256 12.3317 43.768 11.8403C44.28 11.3489 44.9626 11.0926 45.6666 11.0926C46.4986 11.0926 47.1386 11.3489 47.608 11.8403C48.0773 12.353 48.3333 13.0366 48.312 13.7416C48.3333 14.468 48.0773 15.1729 47.5653 15.707C47.0746 16.2197 46.3493 16.4975 45.624 16.4547ZM43.2346 34.9979V18.5483C43.2346 18.3347 43.32 18.2492 43.512 18.2492H47.736C47.928 18.2492 48.0133 18.3561 48.0133 18.5483V34.9979C48.0133 35.2329 47.928 35.3398 47.736 35.3398H43.5546C43.3413 35.3398 43.2346 35.2116 43.2346 34.9979Z" fill="#FF9A00"/>
</svg>
