<svg width="72" height="50" viewBox="0 0 72 50" fill="none" xmlns="http://www.w3.org/2000/svg">
<path d="M18.9854 0H53.0146C58.1739 0 62.3452 4.059 62.3452 9.07933V40.9104C62.3452 45.9307 58.1739 49.9897 53.0146 49.9897H18.9854C13.8261 49.9897 9.65479 45.9307 9.65479 40.9104V9.07933C9.65479 4.059 13.8261 0 18.9854 0Z" fill="#001E36"/>
<path d="M21.5101 35.057V13.0743C21.5101 12.9248 21.576 12.8393 21.7297 12.8393C22.1029 12.8393 22.4542 12.8393 22.9591 12.8179C23.486 12.7966 24.0349 12.7966 24.6276 12.7752C25.2204 12.7538 25.8571 12.7538 26.5377 12.7325C27.2183 12.7111 27.8769 12.7111 28.5355 12.7111C30.3358 12.7111 31.8287 12.9248 33.0581 13.3734C34.1558 13.7366 35.1657 14.3347 36 15.1252C36.7025 15.8088 37.2514 16.6419 37.6027 17.5606C37.932 18.4578 38.1076 19.3764 38.1076 20.3378C38.1076 22.175 37.6685 23.6918 36.7904 24.8881C35.9122 26.0844 34.6827 26.9817 33.2557 27.4944C31.7628 28.0285 30.1162 28.2208 28.316 28.2208C27.7891 28.2208 27.4378 28.2208 27.2183 28.1994C26.9987 28.178 26.6914 28.178 26.2742 28.178V35.0356C26.2962 35.1851 26.1864 35.3133 26.0327 35.3347H21.7736C21.5979 35.3347 21.5101 35.2492 21.5101 35.057ZM26.2962 16.9624V24.1404C26.6035 24.1618 26.8889 24.1831 27.1524 24.1831H28.316C29.1722 24.1831 30.0284 24.0549 30.8407 23.7986C31.5433 23.6063 32.158 23.2004 32.641 22.6663C33.102 22.1323 33.3216 21.4059 33.3216 20.4659C33.3435 19.8037 33.1679 19.1414 32.8166 18.5646C32.4434 18.0092 31.9165 17.5819 31.2798 17.3469C30.4675 17.0265 29.5893 16.8983 28.6892 16.9197C28.1184 16.9197 27.6134 16.9197 27.1963 16.941C26.7572 16.9197 26.4499 16.941 26.2962 16.9624ZM51.8071 22.8372C51.1485 22.4954 50.446 22.2604 49.6995 22.1109C48.8872 21.94 48.0749 21.8332 47.2406 21.8332C46.8015 21.8118 46.3405 21.8759 45.9234 21.9827C45.638 22.0468 45.3965 22.1964 45.2428 22.41C45.133 22.5809 45.0671 22.7945 45.0671 22.9868C45.0671 23.1791 45.155 23.3713 45.2867 23.5422C45.4843 23.7772 45.7477 23.9695 46.0331 24.119C46.5381 24.3754 47.065 24.6104 47.5919 24.824C48.7774 25.2086 49.9191 25.7426 50.9729 26.3835C51.6974 26.8322 52.2901 27.4303 52.7073 28.1567C53.0585 28.8403 53.2342 29.588 53.2122 30.3571C53.2342 31.3611 52.9268 32.3652 52.356 33.1984C51.7413 34.0529 50.8851 34.7152 49.8971 35.0997C48.8213 35.5483 47.5041 35.7833 45.9234 35.7833C44.9135 35.7833 43.9255 35.6979 42.9376 35.5056C42.1692 35.3774 41.4008 35.1424 40.6982 34.822C40.5446 34.7365 40.4348 34.587 40.4567 34.4161V30.6989C40.4567 30.6348 40.4787 30.5493 40.5446 30.5066C40.6104 30.4639 40.6763 30.4853 40.7421 30.528C41.5984 31.0193 42.4985 31.3611 43.4645 31.5748C44.2987 31.7884 45.1769 31.8952 46.0551 31.8952C46.8894 31.8952 47.4821 31.7884 47.8773 31.5961C48.2286 31.4466 48.4701 31.0834 48.4701 30.6989C48.4701 30.3998 48.2944 30.1221 47.9432 29.8444C47.5919 29.5666 46.8674 29.2462 45.7916 28.8403C44.672 28.4558 43.6401 27.943 42.6741 27.3021C41.9935 26.8322 41.4227 26.2126 41.0056 25.4863C40.6543 24.8027 40.4787 24.0549 40.5006 23.3072C40.5006 22.3886 40.7641 21.5127 41.2471 20.7223C41.7959 19.8678 42.6083 19.1842 43.5523 18.7569C44.5842 18.2442 45.8795 18.0092 47.4382 18.0092C48.3383 18.0092 49.2604 18.0733 50.1606 18.2014C50.8192 18.2869 51.4559 18.4578 52.0486 18.6928C52.1364 18.7142 52.2243 18.7996 52.2682 18.8851C52.2901 18.9705 52.3121 19.056 52.3121 19.1414V22.6236C52.3121 22.7091 52.2682 22.7945 52.2023 22.8372C52.0047 22.88 51.895 22.88 51.8071 22.8372Z" fill="#31A8FF"/>
</svg>
