<svg width="81" height="50" viewBox="0 0 81 50" fill="none" xmlns="http://www.w3.org/2000/svg">
<g clip-path="url(#clip0_869_465)">
<path d="M66.8578 28.7537C64.5001 28.767 62.4585 29.3335 60.7462 30.177C60.114 28.9251 59.4818 27.8312 59.3765 27.0143C59.258 26.0656 59.1131 25.4856 59.258 24.3525C59.4027 23.2191 60.0613 21.6114 60.0613 21.4796C60.048 21.361 59.9163 20.7812 58.5598 20.768C57.2032 20.7548 56.0308 21.0316 55.8991 21.3874C55.7674 21.7432 55.504 22.5602 55.3327 23.4035C55.0956 24.6422 52.6194 29.0304 51.21 31.3365C50.749 30.4404 50.3539 29.6497 50.2747 29.0171C50.1563 28.0684 50.0113 27.4885 50.1563 26.3553C50.3012 25.2219 50.9598 23.6144 50.9598 23.4826C50.9466 23.364 50.8149 22.7842 49.4583 22.771C48.1015 22.7578 46.9294 23.0346 46.7977 23.3904C46.666 23.7462 46.5211 24.5895 46.2313 25.4065C45.9546 26.2236 42.6617 33.5503 41.8055 35.4611C41.3709 36.4362 40.989 37.2137 40.7123 37.7408C40.4357 38.2679 40.6991 37.7804 40.6728 37.8331C40.4357 38.2811 40.304 38.5315 40.304 38.5315V38.5448C40.1196 38.8742 39.922 39.1904 39.8297 39.1904C39.7638 39.1904 39.6321 38.3075 39.856 37.0953C40.3434 34.5518 41.5288 30.5855 41.5158 30.4405C41.5158 30.3747 41.7395 29.6761 40.7517 29.3204C39.7902 28.9646 39.4478 29.5576 39.3687 29.5576C39.2896 29.5576 39.2238 29.7685 39.2238 29.7685C39.2238 29.7685 40.2907 25.3014 37.1822 25.3014C35.2328 25.3014 32.5458 27.423 31.2155 29.3601C30.3725 29.8213 28.5812 30.7963 26.6845 31.8375C25.96 32.2328 25.2092 32.6545 24.498 33.0367L24.3532 32.8783C20.5862 28.8591 13.6184 26.0127 13.9082 20.6099C14.0135 18.6464 14.6985 13.4676 27.2906 7.19501C37.6039 2.05573 45.8625 3.46574 47.2981 6.60202C49.3397 11.0824 42.8856 19.4107 32.1641 20.6099C28.0809 21.0711 25.9338 19.4898 25.3939 18.8968C24.8275 18.2774 24.7485 18.2511 24.5378 18.3697C24.1953 18.5542 24.406 19.1076 24.5378 19.4371C24.8539 20.2673 26.171 21.7432 28.4102 22.4811C30.3726 23.1268 35.1672 23.4826 40.9627 21.2424C47.4563 18.7255 52.5273 11.7413 51.0389 5.9036C49.5242 -0.0395212 39.6719 -1.98982 30.3596 1.31778C24.8142 3.29443 18.808 6.378 14.4877 10.4235C9.35081 15.2202 8.53418 19.4107 8.87664 21.1502C10.0754 27.3568 18.6236 31.4024 22.0482 34.3937C21.877 34.4858 21.7189 34.5781 21.574 34.6573C19.8617 35.5005 13.3418 38.9136 11.7085 42.5242C9.8645 46.6093 11.9983 49.548 13.4208 49.9433C17.8201 51.1689 22.3248 48.9682 24.7615 45.3443C27.185 41.7205 26.8953 37.0161 25.7757 34.8681L25.7361 34.789L27.0796 33.9984C27.9491 33.4844 28.8052 33.0101 29.5559 32.6014C29.1345 33.7479 28.8314 35.1052 28.6735 37.0818C28.4891 39.4012 29.4374 42.4056 30.6887 43.5916C31.2419 44.1054 31.9005 44.1187 32.3088 44.1187C33.7577 44.1187 34.4163 42.9194 35.1407 41.4832C36.0364 39.7305 36.8267 37.7012 36.8267 37.7012C36.8267 37.7012 35.8388 43.1963 38.539 43.1963C39.5269 43.1963 40.5147 41.918 40.9626 41.2591V41.2723C40.9626 41.2723 40.9889 41.2328 41.0416 41.1405C41.0969 41.0588 41.1496 40.9753 41.1996 40.8903V40.8639C41.5948 40.1787 42.4773 38.6106 43.7944 36.0146C45.4934 32.6674 47.1268 28.4769 47.1268 28.4769C47.1268 28.4769 47.2849 29.5048 47.7723 31.1915C48.0619 32.1932 48.6941 33.2868 49.1815 34.3542C48.7863 34.9076 48.5492 35.224 48.5492 35.224L48.5624 35.2372C48.2464 35.6589 47.8907 36.1071 47.522 36.555C46.1785 38.1627 44.5716 39.9945 44.3608 40.5216C44.1106 41.1408 44.1632 41.602 44.6506 41.9711C45.0062 42.2347 45.6385 42.2873 46.3102 42.2347C47.522 42.1555 48.365 41.8525 48.7865 41.6679C49.445 41.4307 50.1958 41.0749 50.9203 40.5478C52.2374 39.5728 53.0409 38.1891 52.9619 36.3443C52.9223 35.3296 52.593 34.3281 52.1847 33.3793C52.3033 33.208 52.4219 33.0365 52.5404 32.8522C54.6215 29.808 56.2284 26.461 56.2284 26.461C56.2284 26.461 56.3865 27.4889 56.8738 29.1756C57.1239 30.0322 57.6246 30.9679 58.0724 31.8903C56.123 33.4848 54.8981 35.3297 54.4766 36.5421C53.6995 38.7823 54.3054 39.7969 55.4513 40.0341C55.9648 40.1396 56.7026 39.9024 57.2556 39.6652C57.9406 39.4412 58.7704 39.0589 59.5345 38.4924C60.8516 37.5172 62.1161 36.1599 62.0502 34.3282C62.0107 33.4848 61.7868 32.6547 61.4838 31.864C63.1435 31.1788 65.2903 30.7834 68.0169 31.1129C73.8783 31.7981 75.0374 35.4615 74.8136 36.9901C74.5897 38.5188 73.3647 39.3621 72.9563 39.6256C72.548 39.876 72.4162 39.9684 72.4558 40.1527C72.5084 40.4296 72.6929 40.4163 73.0485 40.3637C73.5358 40.2845 76.1306 39.1118 76.236 36.292C76.3941 32.6676 72.9563 28.7143 66.8578 28.7537ZM21.6531 44.0002C19.7168 46.1218 16.9903 46.9257 15.8312 46.2404C14.5799 45.5157 15.0671 42.3925 17.4513 40.1392C18.9002 38.7687 20.7837 37.5036 22.0219 36.7262C22.2985 36.5548 22.7199 36.3046 23.2205 36.0014C23.2995 35.9488 23.3522 35.9223 23.3522 35.9223C23.4444 35.8696 23.5498 35.8037 23.6551 35.7378C24.5376 38.9532 23.6946 41.7732 21.6531 44.0002ZM35.8125 34.3674C35.1407 36.0146 33.7182 40.2446 32.862 40.0074C32.1243 39.8097 31.6766 36.6076 32.717 33.4449C33.2439 31.8503 34.3635 29.9528 35.0221 29.2148C36.0891 28.0288 37.248 27.6334 37.538 28.121C37.8804 28.7537 36.234 33.3395 35.8125 34.3674ZM47.4957 39.9547C47.2059 40.0998 46.9424 40.2051 46.8239 40.1261C46.7317 40.0734 46.9423 39.8757 46.9423 39.8757C46.9423 39.8757 48.4044 38.3076 48.9839 37.5828C49.3132 37.1613 49.7083 36.6737 50.1298 36.1201V36.2782C50.13 38.1757 48.3123 39.4408 47.4957 39.9547ZM56.5049 37.899C56.2941 37.7408 56.3206 37.2533 57.0317 35.7247C57.3085 35.1185 57.9406 34.1038 59.0338 33.1418C59.1655 33.5372 59.2447 33.9192 59.2314 34.2751C59.2183 36.6471 57.5324 37.53 56.5049 37.899Z" fill="#CF649A"/>
</g>
<defs>
<clipPath id="clip0_869_465">
<rect width="81" height="50" fill="white"/>
</clipPath>
</defs>
</svg>
