<svg width="71" height="45" viewBox="0 0 71 45" fill="none" xmlns="http://www.w3.org/2000/svg">
<path d="M35.4494 3.27045C27.6165 3.27045 22.7212 7.43266 20.7628 15.7563C23.7004 11.5941 27.1273 10.0338 31.0433 11.074C33.2779 11.6675 34.8749 13.3909 36.643 15.2979C39.5226 18.4043 42.8554 21.9996 50.1359 21.9996C57.968 21.9996 62.864 17.8374 64.8217 9.51299C61.8848 13.6752 58.458 15.2362 54.5412 14.1961C52.3073 13.6026 50.7103 11.8791 48.9422 9.97216C46.0626 6.86572 42.7291 3.27045 35.4494 3.27045ZM20.7628 21.9996C12.9307 21.9996 8.03469 26.1618 6.07703 34.4863C9.01389 30.3241 12.4407 28.763 16.3575 29.804C18.5914 30.3982 20.1884 32.1209 21.9565 34.0271C24.8361 37.1335 28.1696 40.7296 35.4494 40.7296C43.2822 40.7296 48.1775 36.5674 50.1359 28.2429C47.1983 32.4052 43.7714 33.9662 39.8554 32.9252C37.6208 32.3325 36.0238 30.6083 34.2557 28.7021C31.3761 25.5957 28.0433 21.9996 20.7628 21.9996Z" fill="#06B6D4"/>
</svg>
