<svg width="72" height="50" viewBox="0 0 72 50" fill="none" xmlns="http://www.w3.org/2000/svg">
<path fill-rule="evenodd" clip-rule="evenodd" d="M17.6984 0C14.1258 0 11.4822 3.13387 11.6006 6.53248C11.7142 9.79761 11.5666 14.0264 10.5044 17.4751C9.43838 20.9333 7.63678 23.1248 4.69348 23.4061V26.5819C7.63678 26.8638 9.43838 29.0542 10.5043 32.513C11.5666 35.9616 11.7141 40.1904 11.6005 43.4556C11.4821 46.8537 14.1257 49.988 17.6989 49.988H54.3064C57.879 49.988 60.5221 46.8542 60.4037 43.4556C60.2901 40.1904 60.4377 35.9616 61.4999 32.513C62.5659 29.0542 64.3631 26.8629 67.3065 26.5819V23.4061C64.3632 23.1242 62.566 20.9338 61.4999 17.4751C60.4376 14.0269 60.2901 9.79761 60.4037 6.53248C60.5221 3.13436 57.879 0 54.3064 0H17.6979H17.6984ZM47.143 30.7709C47.143 35.4506 43.6601 38.2888 37.88 38.2888H28.0407C27.7592 38.2888 27.4893 38.1767 27.2903 37.9773C27.0913 37.7778 26.9794 37.5073 26.9794 37.2252V12.763C26.9794 12.4809 27.0913 12.2104 27.2903 12.0109C27.4893 11.8114 27.7592 11.6994 28.0407 11.6994H37.824C42.6436 11.6994 45.8066 14.3158 45.8066 18.3329C45.8066 21.1524 43.6788 23.6765 40.968 24.1187V24.2658C44.6582 24.6714 47.143 27.233 47.143 30.7709ZM36.8071 15.0709H31.1969V23.0128H35.9221C39.5749 23.0128 41.5891 21.5387 41.5891 18.9037C41.5887 16.4344 39.8571 15.0709 36.8071 15.0709ZM31.1969 26.164V34.9162H37.0135C40.8168 34.9162 42.8313 33.3867 42.8313 30.5124C42.8313 27.6381 40.7603 26.1635 36.769 26.1635H31.1969V26.164Z" fill="#7952B3"/>
</svg>
