<svg width="49" height="54" viewBox="0 0 49 54" fill="none" xmlns="http://www.w3.org/2000/svg">
<path d="M32.6281 5.39994C32.4607 3.91492 31.7474 2.5432 30.6245 1.547C29.5016 0.550812 28.0479 4.51451e-05 26.5413 0H17.0137C15.5071 4.51451e-05 14.0534 0.550812 12.9305 1.547C11.8076 2.5432 11.0942 3.91492 10.9269 5.39994H6.12492C4.50049 5.39994 2.94259 6.03997 1.79395 7.17924C0.645303 8.31851 0 9.86369 0 11.4749V47.9244C0 49.5356 0.645303 51.0808 1.79395 52.22C2.94259 53.3593 4.50049 53.9994 6.12492 53.9994H19.5154C19.2203 53.3823 19.0637 52.7092 19.0561 52.0264C19.0486 51.3435 19.1904 50.6672 19.4718 50.0439L19.5126 49.9494H6.12492C5.58344 49.9494 5.06414 49.7361 4.68126 49.3563C4.29838 48.9765 4.08328 48.4615 4.08328 47.9244V11.4749C4.08328 10.9378 4.29838 10.4227 4.68126 10.043C5.06414 9.66323 5.58344 9.44989 6.12492 9.44989H11.9205C13.0202 11.078 14.8904 12.1499 17.0137 12.1499H26.5413C28.6646 12.1499 30.5348 11.078 31.6345 9.44989H37.4301C37.9715 9.44989 38.4908 9.66323 38.8737 10.043C39.2566 10.4227 39.4717 10.9378 39.4717 11.4749V23.892C39.5697 24.054 39.6577 24.2214 39.7357 24.3942L43.555 32.8613V11.4749C43.555 10.6771 43.3965 9.88713 43.0887 9.15009C42.7809 8.41304 42.3298 7.74335 41.761 7.17924C41.1923 6.61513 40.5171 6.16765 39.774 5.86236C39.0309 5.55707 38.2344 5.39994 37.4301 5.39994H32.6281ZM32.6526 5.65913L32.6662 6.07493C32.6662 5.93453 32.6617 5.79593 32.6526 5.65913ZM17.0137 4.04995H26.5413C27.0828 4.04995 27.6021 4.2633 27.985 4.64305C28.3678 5.02281 28.583 5.53787 28.583 6.07493C28.583 6.61198 28.3678 7.12704 27.985 7.5068C27.6021 7.88656 27.0828 8.0999 26.5413 8.0999H17.0137C16.4722 8.0999 15.9529 7.88656 15.57 7.5068C15.1871 7.12704 14.972 6.61198 14.972 6.07493C14.972 5.53787 15.1871 5.02281 15.57 4.64305C15.9529 4.2633 16.4722 4.04995 17.0137 4.04995ZM37.2531 25.4985C37.0925 25.1411 36.8309 24.8375 36.4999 24.6245C36.169 24.4115 35.7829 24.2981 35.3884 24.2981C34.9939 24.2981 34.6078 24.4115 34.2769 24.6245C33.946 24.8375 33.6844 25.1411 33.5237 25.4985L26.2364 41.6578L26.1983 41.7388L21.9544 51.1482C21.845 51.3911 21.785 51.6529 21.7776 51.9188C21.7702 52.1847 21.8158 52.4495 21.9116 52.698C22.0074 52.9464 22.1516 53.1737 22.336 53.3669C22.5203 53.5601 22.7413 53.7154 22.9861 53.8239C23.231 53.9324 23.495 53.9919 23.7631 53.9992C24.0312 54.0065 24.2982 53.9614 24.5487 53.8664C24.7992 53.7713 25.0283 53.6283 25.2231 53.4454C25.4179 53.2626 25.5744 53.0434 25.6838 52.8006L29.4051 44.5495H41.3718L45.093 52.8006C45.2024 53.0434 45.3589 53.2626 45.5537 53.4454C45.7485 53.6283 45.9777 53.7713 46.2282 53.8664C46.4787 53.9614 46.7456 54.0065 47.0137 53.9992C47.2818 53.9919 47.5458 53.9324 47.7907 53.8239C48.0356 53.7154 48.2565 53.5601 48.4409 53.3669C48.6253 53.1737 48.7695 52.9464 48.8653 52.698C48.9611 52.4495 49.0066 52.1847 48.9992 51.9188C48.9919 51.6529 48.9318 51.3911 48.8224 51.1482L44.5758 41.7388L44.5404 41.6578L37.2531 25.4985ZM35.3884 31.2845L39.5452 40.4995H31.2316L35.3884 31.2845Z" fill="#5E0F5E"/>
</svg>
