<svg width="61" height="50" viewBox="0 0 61 50" fill="none" xmlns="http://www.w3.org/2000/svg">
<path d="M31.0592 25C31.0592 20.3977 34.8478 16.6667 39.5213 16.6667C44.1946 16.6667 47.9833 20.3977 47.9833 25C47.9833 29.6024 44.1946 33.3334 39.5213 33.3334C34.8478 33.3334 31.0592 29.6024 31.0592 25Z" fill="#1ABCFE"/>
<path d="M14.135 41.6666C14.135 37.0644 17.9236 33.3333 22.5971 33.3333H31.0591V41.6666C31.0591 46.2691 27.2706 50 22.5971 50C17.9236 50 14.135 46.2691 14.135 41.6666Z" fill="#0ACF83"/>
<path d="M31.0592 0.00012207V16.6667H39.5213C44.1948 16.6667 47.9833 12.9358 47.9833 8.33334C47.9833 3.73093 44.1948 0.00012207 39.5213 0.00012207H31.0592Z" fill="#FF7262"/>
<path d="M14.135 8.33333C14.135 12.9357 17.9236 16.6667 22.5971 16.6667H31.0591V0H22.5971C17.9236 0 14.135 3.73104 14.135 8.33333Z" fill="#F24E1E"/>
<path d="M14.135 25C14.135 29.6024 17.9236 33.3334 22.5971 33.3334H31.0591V16.6667H22.5971C17.9236 16.6667 14.135 20.3977 14.135 25Z" fill="#A259FF"/>
</svg>
