<svg width="70" height="50" viewBox="0 0 70 50" fill="none" xmlns="http://www.w3.org/2000/svg">
<path d="M10.0712 0H59.9287V50H10.0712V0Z" fill="#F0DB4F"/>
<path d="M55.8482 38.075C55.4833 35.7937 53.9999 33.8783 49.6065 32.0912C48.0805 31.3878 46.3791 30.884 45.872 29.7243C45.6919 29.0494 45.6682 28.6691 45.7819 28.2604C46.1089 26.9344 47.6871 26.5209 48.9383 26.9011C49.744 27.172 50.507 27.7947 50.9667 28.788C53.1184 27.3907 53.1136 27.4001 54.616 26.4401C54.0662 25.5846 53.7724 25.1901 53.4122 24.8241C52.1184 23.3745 50.3554 22.6283 47.5355 22.6854C47.0473 22.7471 46.5545 22.8136 46.0663 22.8755C44.6588 23.2319 43.3175 23.9734 42.5308 24.9667C40.1706 27.6521 40.8436 32.3526 43.7156 34.2871C46.545 36.4163 50.7013 36.9011 51.2321 38.8926C51.7487 41.3308 49.4455 42.1197 47.1563 41.8393C45.4691 41.4876 44.5308 40.6274 43.5165 39.0637C41.6493 40.1473 41.6493 40.1473 39.7299 41.2547C40.1848 42.2528 40.6635 42.7044 41.4265 43.5694C45.0379 47.2433 54.0757 47.0627 55.6966 41.5019C55.7629 41.3117 56.199 40.038 55.8482 38.075ZM37.1753 22.98H32.5119C32.5119 27.0199 32.4929 31.0313 32.4929 35.0712C32.4929 37.6425 32.6256 39.9999 32.2086 40.7224C31.5261 42.1434 29.7584 41.9676 28.9527 41.6919C28.1328 41.2879 27.7157 40.7128 27.2323 39.9001C27.0996 39.6672 27.0001 39.4866 26.9669 39.4724C25.7015 40.2471 24.4408 41.0265 23.1754 41.8013C23.8058 43.0988 24.7346 44.2252 25.9242 44.9571C27.7015 46.0265 30.0901 46.3545 32.5877 45.7794C34.2133 45.3041 35.6161 44.3203 36.3507 42.8231C37.4123 40.8602 37.1848 38.4838 37.1753 35.8555C37.199 31.5684 37.1753 27.2813 37.1753 22.98Z" fill="#323330"/>
</svg>
