<?xml version="1.0" encoding="UTF-8"?>
<!-- Generator: Adobe Illustrator 18.0.0, SVG Export Plug-In . SVG Version: 6.00 Build 0)  -->
<svg xmlns="http://www.w3.org/2000/svg" xmlns:xlink="http://www.w3.org/1999/xlink" version="1.1" id="Capa_1" x="0px" y="0px" viewBox="0 0 200 200" xml:space="preserve">
<g>
	<polygon fill-rule="evenodd" clip-rule="evenodd" fill="#101011" points="76.1,14.3 78.4,6.7 83.4,12.7 86.3,5.3 90.8,11.7    94.3,4.5 98.2,11.3 102.3,4.4 105.7,11.5 110.3,5 113.1,12.3 118.2,6.3 120.4,13.8 126,8.2 127.5,15.9 133.6,10.7 134.5,18.5    141,13.9 141.2,21.7 148.1,17.7 147.6,25.5 154.8,22.1 153.7,29.8 161.1,27 159.4,34.6 167.1,32.4 164.7,39.9 172.5,38.4    169.5,45.6 177.4,44.7 173.8,51.6 181.8,51.4 177.6,58.1 185.6,58.5 180.9,64.8 188.8,65.9 183.6,71.7 191.3,73.5 185.7,78.9    193.2,81.3 187.1,86.2 194.5,89.2 188,93.6 195.1,97.2 188.3,101 195,105.2 187.9,108.4 194.2,113.2 186.9,115.8 192.8,121.1    185.3,123.1 190.7,128.9 183.1,130.2 188,136.4 180.2,137.1 184.7,143.7 176.9,143.8 180.8,150.7 173,150.1 176.2,157.4    168.5,156.1 171.2,163.6 163.6,161.7 165.6,169.4 158.2,166.9 159.6,174.7 152.5,171.6 153.2,179.5 146.3,175.8 146.3,183.7    139.8,179.4 139.2,187.4 133,182.5 131.8,190.4 126,185.1 124.1,192.8 118.8,187 116.3,194.6 111.5,188.4 108.3,195.6 104.1,189.1    100.3,196.1 96.6,189.2 92.3,195.8 89.2,188.6 84.3,194.9 81.8,187.5 76.4,193.3 74.6,185.7 68.7,191.1 67.5,183.3 61.2,188.2    60.7,180.4 54,184.7 54.1,176.9 47.1,180.6 47.9,172.8 40.5,176 42,168.3 34.4,170.8 36.5,163.2 28.7,165.1 31.4,157.8 23.6,159    26.8,151.9 18.9,152.4 22.8,145.6 14.8,145.5 19.2,139.1 11.3,138.3 16.3,132.2 8.4,130.8 13.9,125.2 6.2,123.1 12.1,117.9    4.6,115.2 10.9,110.6 3.7,107.2 10.4,103.2 3.4,99.2 10.4,95.7 3.9,91.2 11.1,88.3 4.9,83.3 12.4,80.9 6.7,75.4 14.3,73.7    9.1,67.8 16.8,66.7 12.1,60.3 19.9,60 15.8,53.2 23.6,53.5 20,46.3 27.8,47.3 24.8,39.9 32.4,41.5 30.1,33.9 37.6,36.1 35.9,28.3    43.2,31.2 42.1,23.3 49.2,26.7 48.8,18.8 55.5,22.8 55.8,14.8 62.1,19.4 63.1,11.5 69,16.5 70.6,8.8 76.1,14.3  "></polygon>
	<polygon fill-rule="evenodd" clip-rule="evenodd" fill="#FFFFFF" points="15.6,97.8 23.8,97.8 26.4,90.1 28.9,97.8 37.1,97.8    30.5,102.7 33,110.4 26.4,105.6 19.7,110.4 22.3,102.7 15.6,97.8  "></polygon>
	<polygon fill-rule="evenodd" clip-rule="evenodd" fill="#FFFFFF" points="50.8,99.9 42,103.3 50.9,104.7 46.1,106.5 51.6,107.2    43.3,112.1 52.2,112.3 48,115.5 53.5,115.2 46.1,121.5 54.9,120.1 51.3,124 56.7,122.8 50.6,130.2 59,127.4 56.1,131.9 61.2,129.7    56.4,138.1 64.2,133.9 62.1,138.8 66.8,135.8 63.5,144.9 70.5,139.4 69.3,144.5 73.4,140.8 71.6,150.3 77.3,143.6 76.7,148.8    80.2,144.4 80,154.1 84.8,146.6 85.3,151.9 88,147 89.5,156.6 92.9,148.4 94.3,153.5 96.1,148.3 99.2,157.4 101.2,148.8    103.5,153.6 104.4,148.1 109,156.6 109.5,147.7 112.6,152.1 112.5,146.5 118.5,154.1 117.5,145.3 121.2,149 120.2,143.6    126.9,150.5 124.3,141.8 128,145.3 126.3,140.1 134.3,145.4 130.6,137.4 135.3,139.8 132.7,134.9 141.5,138.8 136.5,131.5    141.5,133 138.1,128.7 147.5,131 141.2,124.6 146.5,125.3 142.4,121.6 152,122.3 144.8,117.1 150.1,116.9 145.4,113.9 155,113    147,109.1 152.2,107.9 147.1,105.9 156.4,103.3 147.7,100.6 156.6,97.5 147.6,96 152.4,94.2 146.9,93.5 155.3,88.6 146.4,88.4    150.6,85.2 145.1,85.5 152.5,79.2 143.6,80.6 147.3,76.7 141.9,77.9 148.1,70.5 139.6,73.3 142.6,68.8 137.4,70.9 142.3,62.6    134.4,66.8 136.5,61.9 131.9,64.8 135.2,55.8 128.2,61.2 129.4,56.1 125.3,59.8 127.1,50.3 121.4,57 122,51.8 118.5,56.1    118.8,46.5 113.9,54 113.4,48.7 110.7,53.5 109.3,43.9 105.8,52.1 104.4,47 102.6,52.2 99.5,43 97.5,51.7 95.2,46.9 94.3,52.4    89.8,43.8 89.2,52.7 86.2,48.4 86.2,53.9 80.3,46.3 81.3,55.1 77.5,51.4 78.5,56.8 71.8,49.9 74.4,58.6 70.7,55 72.4,60.3    64.4,54.9 68.1,63 63.4,60.6 66,65.5 57.2,61.5 62.2,68.9 57.1,67.3 60.5,71.6 51.2,69.3 57.4,75.7 52.1,75 56.2,78.7 46.6,77.9    53.8,83.2 48.5,83.4 53.2,86.3 43.5,87.3 51.5,91.2 46.3,92.3 51.5,94.4 42.1,97 50.8,99.9  "></polygon>
	<path fill-rule="evenodd" clip-rule="evenodd" fill="#FDE867" d="M58.5,88.4c-0.3,2.8,1.6,0.6,2.1,1.3c0.6,0.8,0.5,1.8,1.7,1.7   c1.2-0.1,1.6-0.4,2.2-0.2c1.2,0.6-0.9,3,2.8,3.3c2.4,0.2,2.8-5.1,6.1-11.3c5.2-9.7,17.5-21.6,31.7-23.5c0.6-0.1,1.4-0.5,1.4-1.1   c0-0.6-2.4-1.6-3.5-1.6c-4.2-0.1-7.9,1.3-9.1,1.8c-1,0.5-3-0.4-4.1-0.4c-3.1,0-7.2,3.3-7.9,3.5c-0.6,0.2-1-0.2-1.7-0.3   C77.8,61.4,60.1,72.7,58.5,88.4L58.5,88.4z"></path>
	<path fill-rule="evenodd" clip-rule="evenodd" fill="#FDE867" d="M126.7,71.2c0.8-0.3,3.1-0.4,2.8-1.2c-1.2-4.2-6.5-4.6-6.7-5.7   c-0.5-2.1-4.4-2.7-7.1-2c-8.8,2.4-23.2,7-33.7,29l-0.2,0.4c-1.1,4,4.5,6,6.1,6c1.3,0,2-2.7,2.9-2.7c0.9,0,0.9,0.4,1.5,1   c1.5,1.6,3.1,3,5.3,3c1.8,0,2.1-2,3-3.5C107.3,84.4,119.8,73.9,126.7,71.2L126.7,71.2z"></path>
	<path fill-rule="evenodd" clip-rule="evenodd" fill="#AAD9E2" d="M108.2,141.5c0.7-0.5,1.1-1,0.7-2c-0.3-0.9-0.5-0.4-0.9-1.3   c-0.2-0.6,1.1-0.9,0.2-3.4c-2.8-3,1.3-1.5,0.8-7.6c-0.3-3-3.5-0.1-12.2,1c-13.4,1.7-27.4-2.6-35.1-12.4c-0.4-0.5-0.8-1.3-1.3-1   c-0.5,0.3,0,4,0.6,5.1c2,3.7,6.4,6.3,7.3,7.2c0.7,0.7-0.2,2.3,0.5,3.2c5.3,6.8,11.5,4.8,11.8,8.3   C80.8,141.6,102.1,146.2,108.2,141.5L108.2,141.5z"></path>
	<path fill-rule="evenodd" clip-rule="evenodd" fill="#AAD9E2" d="M58.6,94.9c-0.5-0.7-1.5-2.4-1.7-1.6c-1.7,4.8-0.3,5.8-0.5,6.9   c-0.6,2.5,0.1,4.4,1.7,6.4c5.5,6.9,21.3,16,41,11c0,0,3.4-0.5,3.8-4c0.2-2.2-0.2-4.3-2-6.6c-0.4-0.5,0.7-2.2,0.1-3.7   c-0.7-1.9-3.9-2.6-5.4-1.5C91.5,105,63,100.3,58.6,94.9L58.6,94.9z"></path>
	<path fill-rule="evenodd" clip-rule="evenodd" fill="#AAD9E2" d="M133,73.1c-0.3-0.3-2-1.5-2.7-0.2c-0.1,0.9,0,1.1-0.3,1.5   c-0.4,0.7-0.8-0.1-2,1c-1,0.8,0.2,1.7-1,2.1c-1.4,0.5-3.6-0.3-4.3,1.1c-1.3,2.6,3.1,7,4.8,10.4c5.9,11.7,7.2,24.2,5.7,33.7   c-0.1,0.6,0,1.4,0.5,1.7c0.5,0.3,3.1-2,3.7-3.1c2.2-3.6,2.3-4.7,2.3-5.9c0.1-4.1,0.7-2.8,1.2-3.8c3-5-0.2-13.5,0.5-13.5   C144.6,97.8,140.3,80.1,133,73.1L133,73.1z"></path>
	<path fill-rule="evenodd" clip-rule="evenodd" fill="#AAD9E2" d="M111.7,139.7c-0.3,0.8-0.8,2.2,0.5,1.9c4.5-1,5.4-3.3,6.5-3.3   c2.6-0.1,4.6-1.8,6.2-4.4c3.9-6.7,1.7-31.6-8.8-43.5l-0.4-0.3c-1.5-1.1-6,0.3-6.8,1.7c-0.6,1.1-0.8,2.5,0.1,3.3   c0.8,0.7-1.9,1.2-2.7,1.4c-2.1,0.5-4.3,1.8-3.1,3.6c2.2,3.4,4.1,6.1,5,7.7C113.5,117.3,114.7,132.3,111.7,139.7L111.7,139.7z"></path>
	<g>
		<path fill="#FFFFFF" d="M40.5,74.9L26.6,68l1.3-2.6l11.6,5.8l1.7-3.5l2.3,1.2L40.5,74.9z"></path>
		<path fill="#FFFFFF" d="M46.6,64.1l-12.5-9.2l1.7-2.4l12.5,9.2L46.6,64.1z"></path>
		<path fill="#FFFFFF" d="M46.7,51.5c-3.3-3.5-4.4-6.9-1.9-9.2c1.6-1.5,3.6-1.1,5.3,0L49,44.5c-0.9-0.6-1.8-1-2.4-0.3    c-0.8,0.8-0.2,2.5,2.3,5.2c2.5,2.7,4.2,3.5,5.1,2.7c0.9-0.8,0-2.4-1.2-3.7l-1.4,1.4l-1.8-1.9l3.5-3.2c3.8,4.1,5.1,7.1,2.7,9.4    C53.3,56.3,50,54.9,46.7,51.5z"></path>
		<path fill="#FFFFFF" d="M68.2,44.7l-1.9-2.2l-2.5,1.5l1.1,2.7l-2.6,1.5l-5.1-15l2.9-1.7l10.7,11.7L68.2,44.7z M60.3,35.1l2.5,6.4    l1.9-1.1L60.3,35.1z"></path>
		<path fill="#FFFFFF" d="M88.5,37.6l-1-2.7l-2.9,0.6l0.1,2.9l-2.9,0.6L82,23.1l3.3-0.7L91.4,37L88.5,37.6z M84.3,26l0.2,6.9    l2.2-0.4L84.3,26z"></path>
		<path fill="#FFFFFF" d="M105.4,37l0.5-9.8l-3.1,9.7l-1,0l-2-9.9l-0.5,9.8l-2.9-0.1l0.8-15.5l3.7,0.2l1.8,8.7l2.7-8.4l3.6,0.2    l-0.8,15.5L105.4,37z"></path>
		<path fill="#FFFFFF" d="M114.3,38.5l4.4-14.8l6.5,1.9l-0.7,2.5l-3.7-1.1l-1.1,3.6l3.5,1.1l-0.7,2.5L119,33l-1.2,3.8l3.7,1.1    l-0.7,2.5L114.3,38.5z M122.7,23.3l-1.6-0.5l2.7-2.7l2.2,0.7L122.7,23.3z"></path>
		<path fill="#FFFFFF" d="M131.1,45.4l1.3-5.8l-0.8-0.5l-2.8,5l-2.6-1.4l7.5-13.6l3.8,2.1c2.2,1.2,2.8,3.8,1.4,6.3    c-1.3,2.3-2.8,2.8-3.8,2.8l-1.2,6.6L131.1,45.4z M136.2,36.1c0.7-1.2,0.6-2.3-0.4-2.9l-0.8-0.5l-2.2,4.1l0.8,0.4    C134.6,37.8,135.6,37.3,136.2,36.1z"></path>
		<path fill="#FFFFFF" d="M138.6,50.4l9.9-12l2.3,1.9l-9.9,12L138.6,50.4z"></path>
		<path fill="#FFFFFF" d="M151.2,51.3c3.5-3,7.1-4,9.3-1.4c1.6,1.9,0.7,3.9-0.3,5.3l-2.2-1.2c0.7-1,1-1.7,0.5-2.4    c-0.9-1-2.9,0-5.3,2.1c-2.4,2-3.8,3.9-2.9,4.9c0.6,0.7,1.6,0.4,2.8-0.2l0.8,2.3c-1.6,0.8-3.9,1.6-5.6-0.4    C146,57.6,147.6,54.2,151.2,51.3z"></path>
		<path fill="#FFFFFF" d="M156.5,72.6l2.3-1.7l-1.4-2.6l-2.7,0.9l-1.4-2.7l15.2-4.4l1.6,3l-12.2,10.1L156.5,72.6z M166.5,65.2    l-6.5,2.2l1,2L166.5,65.2z"></path>
	</g>
	<g>
		<path fill="#FFFFFF" d="M23.2,129.6l14.3-5.9l2,4.9l-1.1,0.4l-1.6-3.8l-5.4,2.2l1.5,3.6l-1.1,0.4l-1.5-3.6l-6.8,2.8L23.2,129.6z"></path>
		<path fill="#FFFFFF" d="M32.6,140.5l9.8-6.4l0.7,1l-9.8,6.5c-1.8,1.2-2,2.3-1.3,3.3c0.7,1,1.7,1.3,3.5,0.1l9.8-6.5l0.7,1l-9.8,6.4    c-2.4,1.6-4.1,1.1-5.2-0.5C30,143.9,30.2,142.1,32.6,140.5z M45.3,135.8l-0.4-0.7l3.8-0.3l0.7,1.1L45.3,135.8z"></path>
		<path fill="#FFFFFF" d="M40.1,156.4l10.4-10l-1.7-1.8l0.8-0.8l4.3,4.5l-0.8,0.8l-1.7-1.8l-10.4,10L40.1,156.4z"></path>
		<path fill="#FFFFFF" d="M49,164.6l9.1-12.5l2.3,1.7c1.6,1.2,1.7,3.1,0.2,5.1c-1.1,1.6-2.4,2.1-3.7,1.7c0.9,0.9,0.5,2.9-0.5,4.3    c-1.5,2.1-3.3,2.8-5.1,1.4L49,164.6z M55.4,164c1-1.3,1.4-2.9,0.1-3.8l-1.2-0.9l-3.7,5l1.2,0.9C53.1,166.2,54.3,165.6,55.4,164z     M59.5,158.1c0.9-1.3,1.3-2.7,0.1-3.6l-1.1-0.8l-3.4,4.7l1.1,0.8C57.4,160.2,58.5,159.4,59.5,158.1z"></path>
		<path fill="#FFFFFF" d="M64.7,165.7c1.8-4,4.2-6.9,6.7-5.7c2.5,1.2,1.8,4.9,0,8.8c-1.8,4-4.2,6.9-6.8,5.7    C62.2,173.4,62.9,169.7,64.7,165.7z M70.3,168.3c1.6-3.4,2.4-6.5,0.7-7.2c-1.6-0.7-3.5,1.9-5,5.2c-1.5,3.3-2.4,6.5-0.8,7.2    C66.8,174.3,68.7,171.6,70.3,168.3z"></path>
		<path fill="#FFFFFF" d="M76.9,178.8l3.8-15l1.2,0.3L78.4,178l3.9,1l-0.3,1.1L76.9,178.8z"></path>
		<path fill="#FFFFFF" d="M105.1,181.7l-0.8-3.8l-3.5,0.2l-0.5,3.9l-1.3,0.1l2.3-15.6l1.4-0.1l3.7,15.4L105.1,181.7z M102,167.9    l-1.2,9l3.2-0.1L102,167.9z"></path>
		<path fill="#FFFFFF" d="M122.5,178.5l-3.3-12.7l0.2,13.5l-0.5,0.1l-6.3-12l3.3,12.7l-1.2,0.3l-3.8-15l1.7-0.4l5.7,10.8l-0.2-12.3    l1.7-0.4l3.8,15L122.5,178.5z"></path>
		<path fill="#FFFFFF" d="M137.1,172.4l-2.3-3.2l-3.1,1.5l1.1,3.8l-1.2,0.6l-4.2-15.2l1.3-0.6l9.5,12.6L137.1,172.4z M128.8,161    l2.5,8.7l2.8-1.4L128.8,161z"></path>
		<path fill="#FFFFFF" d="M145.7,167.1l-8.4-11.7l-2,1.4l-0.7-0.9l5.1-3.6l0.7,0.9l-2,1.5l8.4,11.7L145.7,167.1z"></path>
		<path fill="#FFFFFF" d="M155,159.5l-11-10.9l3.7-3.8l0.8,0.8l-2.9,2.9l4.1,4.1l2.7-2.8l0.8,0.8l-2.7,2.8l4.4,4.4l2.9-2.9l0.8,0.8    L155,159.5z"></path>
		<path fill="#FFFFFF" d="M161.4,146.6l-9.7-6.6l0.7-1l9.7,6.6c1.8,1.2,2.9,1,3.5-0.1c0.7-1,0.5-2.1-1.3-3.3l-9.7-6.6l0.7-1l9.7,6.6    c2.4,1.6,2.6,3.4,1.5,5C165.5,147.8,163.8,148.2,161.4,146.6z"></path>
		<path fill="#FFFFFF" d="M174.7,130.2l-6.8-0.5l-0.6,1.4l6,2.5l-0.5,1.2l-14.3-6l1.1-2.6c0.8-1.8,2.8-2.5,5.4-1.4    c2.6,1.1,3.2,2.6,3.1,3.7l7.1,0.4L174.7,130.2z M164.5,126c-1.8-0.8-3.4-0.7-4,0.7l-0.5,1.3l6.2,2.6l0.5-1.3    C167.4,128,166.3,126.8,164.5,126z"></path>
	</g>
	<polygon fill-rule="evenodd" clip-rule="evenodd" fill="#FFFFFF" points="161.1,97.8 169.3,97.8 171.8,90.1 174.3,97.8 182.5,97.8    175.9,102.7 178.4,110.4 171.8,105.6 165.2,110.4 167.7,102.7 161.1,97.8  "></polygon>
</g>
</svg>
