<svg width="70" height="50" viewBox="0 0 70 50" fill="none" xmlns="http://www.w3.org/2000/svg">
<g clip-path="url(#clip0_869_454)">
<path d="M33.2904 0.0558632C33.1828 0.0656286 32.8405 0.0998077 32.5324 0.124221C25.4266 0.763858 18.7707 4.59191 14.5552 10.4756C12.2078 13.747 10.7064 17.4579 10.1391 21.3885C9.93864 22.7605 9.91418 23.1658 9.91418 25.0261C9.91418 26.8864 9.93864 27.2917 10.1391 28.6637C11.4987 38.0434 18.1839 45.9242 27.2507 48.844C28.8744 49.3665 30.586 49.7229 32.5324 49.9378C33.2904 50.0208 36.567 50.0208 37.325 49.9378C40.6847 49.5667 43.531 48.7366 46.3381 47.306C46.7684 47.0862 46.8516 47.0276 46.7929 46.9788C46.7538 46.9495 44.9199 44.4935 42.7192 41.5248L38.7188 36.1294L33.7061 28.7223C30.9479 24.6501 28.6787 21.3201 28.6592 21.3201C28.6396 21.3152 28.6201 24.6062 28.6103 28.6247C28.5956 35.6607 28.5907 35.9439 28.5027 36.1099C28.3755 36.3491 28.2777 36.4468 28.0723 36.5542C27.9158 36.6323 27.7789 36.647 27.0405 36.647H26.1944L25.9695 36.5054C25.8227 36.4126 25.7152 36.2905 25.6418 36.1489L25.5391 35.9292L25.5489 26.1394L25.5635 16.3446L25.7152 16.1542C25.7934 16.0517 25.9597 15.9198 26.077 15.8564C26.2775 15.7587 26.3558 15.7489 27.2018 15.7489C28.1995 15.7489 28.3658 15.788 28.625 16.0712C28.6983 16.1493 31.4125 20.2313 34.6597 25.1482C37.907 30.0651 42.3475 36.7788 44.5286 40.0747L48.4899 46.0658L48.6904 45.9339C50.4656 44.7816 52.3435 43.141 53.8302 41.4321C56.9943 37.8042 59.0336 33.3804 59.7183 28.6637C59.9188 27.2917 59.9432 26.8864 59.9432 25.0261C59.9432 23.1658 59.9188 22.7605 59.7183 21.3885C58.3587 12.0088 51.6735 4.12805 42.6067 1.20819C41.0075 0.690617 39.3056 0.334178 37.3984 0.119339C36.9289 0.0705114 33.6963 0.0168014 33.2904 0.0558632ZM43.531 15.163C43.7657 15.2802 43.9564 15.5048 44.0249 15.7392C44.064 15.8661 44.0738 18.5809 44.064 24.699L44.0494 33.4781L42.4991 31.1051L40.9439 28.7321V22.3504C40.9439 18.2245 40.9635 15.9052 40.9928 15.7929C41.0711 15.5194 41.2423 15.3046 41.477 15.1777C41.6775 15.0751 41.7509 15.0654 42.5187 15.0654C43.2424 15.0654 43.3696 15.0751 43.531 15.163Z" fill="black"/>
</g>
<defs>
<clipPath id="clip0_869_454">
<rect width="70" height="50" fill="white"/>
</clipPath>
</defs>
</svg>
