<svg width="61" height="50" viewBox="0 0 61 50" fill="none" xmlns="http://www.w3.org/2000/svg">
<g clip-path="url(#clip0_869_457)">
<path d="M58.9801 25.0058C58.9801 21.279 54.2631 17.7472 47.0311 15.5571C48.7 8.26416 47.9583 2.46193 44.69 0.604294C43.9366 0.168554 43.0558 -0.0378497 42.0939 -0.0378497V2.51926C42.627 2.51926 43.0558 2.62246 43.4151 2.8174C44.9913 3.71181 45.6751 7.11747 45.142 11.4978C45.0145 12.5757 44.8059 13.7109 44.5509 14.8691C42.2793 14.3187 39.7991 13.8944 37.1914 13.6192C35.6268 11.4978 34.0042 9.57138 32.3701 7.88575C36.1483 4.41129 39.6948 2.50779 42.1055 2.50779V-0.0493164C38.9183 -0.0493164 34.746 2.19819 30.5273 6.09692C26.3086 2.22112 22.1363 -0.0034488 18.9492 -0.0034488V2.55366C21.3482 2.55366 24.9063 4.44569 28.6845 7.89722C27.062 9.58285 25.4394 11.4978 23.898 13.6192C21.2787 13.8944 18.7985 14.3187 16.5269 14.8805C16.2603 13.7338 16.0633 12.6216 15.9242 11.5551C15.3795 7.1748 16.0517 3.76915 17.6163 2.86327C17.964 2.65686 18.416 2.56513 18.9492 2.56513V0.00801789C17.9756 0.00801789 17.0948 0.214421 16.3299 0.650162C13.0732 2.50779 12.343 8.29856 14.0235 15.5685C6.81469 17.7702 2.12085 21.2905 2.12085 25.0058C2.12085 28.7325 6.83787 32.2643 14.0699 34.4545C12.4009 41.7474 13.1427 47.5496 16.411 49.4072C17.1643 49.843 18.0452 50.0494 19.0187 50.0494C22.2059 50.0494 26.3782 47.8019 30.5968 43.9032C34.8155 47.7789 38.9878 50.0035 42.175 50.0035C43.1485 50.0035 44.0294 49.7971 44.7943 49.3614C48.051 47.5037 48.7811 41.713 47.1006 34.443C54.2863 32.2528 58.9801 28.721 58.9801 25.0058ZM43.8903 17.3574C43.4615 18.8366 42.9283 20.3617 42.3257 21.8868C41.8505 20.9694 41.3521 20.0521 40.8074 19.1347C40.2743 18.2174 39.7064 17.323 39.1385 16.4515C40.7842 16.6923 42.372 16.9904 43.8903 17.3574ZM38.5822 29.5696C37.6782 31.1176 36.751 32.5854 35.789 33.9499C34.0622 34.099 32.3121 34.1793 30.5505 34.1793C28.8004 34.1793 27.0504 34.099 25.3351 33.9614C24.3732 32.5968 23.4344 31.1405 22.5304 29.604C21.6496 28.1018 20.8499 26.5767 20.1197 25.0402C20.8383 23.5036 21.6496 21.9671 22.5188 20.4649C23.4228 18.9169 24.35 17.4491 25.3119 16.0846C27.0388 15.9355 28.7888 15.8552 30.5505 15.8552C32.3005 15.8552 34.0506 15.9355 35.7659 16.0731C36.7278 17.4376 37.6666 18.8939 38.5706 20.4305C39.4514 21.9327 40.2511 23.4577 40.9813 24.9943C40.2511 26.5309 39.4514 28.0674 38.5822 29.5696ZM42.3257 28.0789C42.9515 29.6154 43.4846 31.152 43.925 32.6427C42.4068 33.0096 40.8074 33.3192 39.1501 33.56C39.718 32.6771 40.2859 31.7712 40.819 30.8424C41.3521 29.9251 41.8505 28.9962 42.3257 28.0789ZM30.5737 40.314C29.4958 39.2132 28.418 37.9863 27.3517 36.6446C28.3948 36.6905 29.461 36.7249 30.5389 36.7249C31.6283 36.7249 32.7062 36.702 33.7608 36.6446C32.7178 37.9863 31.6399 39.2132 30.5737 40.314ZM21.9509 33.56C20.3052 33.3192 18.7174 33.0211 17.1991 32.6542C17.6279 31.1749 18.1611 29.6498 18.7637 28.1248C19.2389 29.0421 19.7373 29.9595 20.282 30.8768C20.8267 31.7942 21.383 32.6886 21.9509 33.56ZM30.5157 9.69751C31.5936 10.7983 32.6714 12.0253 33.7377 13.3669C32.6946 13.321 31.6283 13.2866 30.5505 13.2866C29.4611 13.2866 28.3832 13.3096 27.3285 13.3669C28.3716 12.0253 29.4495 10.7983 30.5157 9.69751ZM21.9393 16.4515C21.3714 17.3344 20.8035 18.2403 20.2704 19.1691C19.7373 20.0865 19.2389 21.0038 18.7637 21.9212C18.1379 20.3846 17.6047 18.8481 17.1643 17.3574C18.6826 17.0019 20.282 16.6923 21.9393 16.4515ZM11.4506 30.808C7.34782 29.0765 4.69377 26.8061 4.69377 25.0058C4.69377 23.2055 7.34782 20.9236 11.4506 19.2035C12.4473 18.7793 13.5367 18.4009 14.6609 18.0454C15.3216 20.2929 16.1908 22.6321 17.2686 25.0287C16.2024 27.4138 15.3447 29.7416 14.6957 31.9776C13.5483 31.6221 12.4589 31.2323 11.4506 30.808ZM17.6859 47.1941C16.1097 46.2997 15.4259 42.8941 15.959 38.5137C16.0865 37.4358 16.2951 36.3006 16.5501 35.1425C18.8217 35.6929 21.3019 36.1172 23.9096 36.3924C25.4742 38.5137 27.0967 40.4402 28.7309 42.1258C24.9526 45.6002 21.4062 47.5037 18.9955 47.5037C18.474 47.4923 18.0336 47.3891 17.6859 47.1941ZM45.1767 38.4564C45.7215 42.8367 45.0492 46.2424 43.4846 47.1483C43.1369 47.3547 42.6849 47.4464 42.1518 47.4464C39.7527 47.4464 36.1947 45.5544 32.4164 42.1029C34.039 40.4172 35.6616 38.5023 37.203 36.3809C39.8223 36.1057 42.3025 35.6814 44.5741 35.1195C44.8406 36.2777 45.0493 37.39 45.1767 38.4564ZM49.6388 30.808C48.6421 31.2323 47.5526 31.6107 46.4284 31.9662C45.7678 29.7186 44.8986 27.3794 43.8207 24.9828C44.887 22.5977 45.7446 20.27 46.3937 18.0339C47.541 18.3894 48.6305 18.7793 49.6504 19.2035C53.7531 20.935 56.4072 23.2055 56.4072 25.0058C56.3956 26.8061 53.7416 29.088 49.6388 30.808Z" fill="#61DAFB"/>
<path d="M30.5388 30.2461C33.464 30.2461 35.8353 27.8999 35.8353 25.0057C35.8353 22.1116 33.464 19.7654 30.5388 19.7654C27.6136 19.7654 25.2423 22.1116 25.2423 25.0057C25.2423 27.8999 27.6136 30.2461 30.5388 30.2461Z" fill="#61DAFB"/>
</g>
<defs>
<clipPath id="clip0_869_457">
<rect width="61" height="50" fill="white"/>
</clipPath>
</defs>
</svg>
