<svg width="65" height="54" viewBox="0 0 65 54" fill="none" xmlns="http://www.w3.org/2000/svg">
<path d="M0 54V48H64.1667V54H0ZM8.75 45C7.14583 45 5.77306 44.413 4.63167 43.239C3.49028 42.065 2.91861 40.652 2.91667 39V6C2.91667 4.35 3.48833 2.938 4.63167 1.764C5.775 0.59 7.14778 0.002 8.75 0H55.4167C57.0208 0 58.3946 0.588 59.5379 1.764C60.6813 2.94 61.2519 4.352 61.25 6V39C61.25 40.65 60.6793 42.063 59.5379 43.239C58.3965 44.415 57.0228 45.002 55.4167 45H8.75ZM8.75 39H55.4167V6H8.75V39Z" fill="#5E0F5E"/>
</svg>
