<svg width="56" height="54" viewBox="0 0 56 54" fill="none" xmlns="http://www.w3.org/2000/svg">
<path d="M39.5122 28.9756L28.5805 18.3073C27.2195 16.9902 26.0675 15.5309 25.1245 13.9294C24.1815 12.3278 23.7091 10.5822 23.7073 8.69269C23.7073 6.27806 24.5529 4.22606 26.244 2.53669C27.9351 0.847325 29.9871 0.00176387 32.4 7.77035e-06C33.8049 7.77035e-06 35.1219 0.296788 36.3512 0.890349C37.5805 1.48391 38.6341 2.28469 39.5122 3.29269C40.3902 2.28293 41.4439 1.48128 42.6732 0.887715C43.9024 0.294154 45.2195 -0.00174833 46.6244 7.77035e-06C49.039 7.77035e-06 51.0919 0.845569 52.783 2.53669C54.4741 4.22781 55.3188 6.27981 55.3171 8.69269C55.3171 10.5805 54.8561 12.3261 53.9341 13.9294C53.0122 15.5327 51.8707 16.992 50.5098 18.3073L39.5122 28.9756ZM39.5122 21.6L46.6902 14.5537C47.5244 13.7195 48.2927 12.8301 48.9951 11.8853C49.6976 10.9405 50.0488 9.8763 50.0488 8.69269C50.0488 7.72684 49.7195 6.91464 49.061 6.2561C48.4024 5.59757 47.5902 5.2683 46.6244 5.2683C46.0098 5.2683 45.4276 5.38859 44.878 5.62918C44.3283 5.86976 43.8568 6.2324 43.4634 6.71708L39.5122 11.4585L35.561 6.71708C35.1659 6.23415 34.6943 5.87152 34.1464 5.62918C33.5985 5.38684 33.0164 5.26654 32.4 5.2683C31.4341 5.2683 30.622 5.59757 29.9634 6.2561C29.3049 6.91464 28.9756 7.72684 28.9756 8.69269C28.9756 9.87805 29.3268 10.9431 30.0293 11.8879C30.7317 12.8327 31.5 13.7213 32.3341 14.5537L39.5122 21.6ZM15.8049 43.4634L34.1122 48.4683L49.7854 43.5951C49.5658 43.2 49.2471 42.8593 48.8292 42.5731C48.4112 42.2868 47.9397 42.1446 47.4146 42.1463H34.1122C32.9268 42.1463 31.9829 42.1024 31.2805 42.0146C30.578 41.9268 29.8537 41.7512 29.1073 41.4878L22.9829 39.4463L24.4317 34.3098L29.7659 36.0878C30.5122 36.3073 31.3902 36.4829 32.4 36.6146C33.4098 36.7463 34.9024 36.8341 36.878 36.878C36.878 36.3951 36.7358 35.9341 36.4513 35.4951C36.1668 35.0561 35.8261 34.7707 35.4293 34.639L20.0195 28.9756H15.8049V43.4634ZM0 52.6829V23.7073H20.0195C20.3268 23.7073 20.6341 23.7407 20.9415 23.8074C21.2488 23.8741 21.5341 23.9505 21.7976 24.0366L37.2732 29.7659C38.7219 30.2927 39.8968 31.2146 40.7977 32.5317C41.6985 33.8488 42.1481 35.2976 42.1463 36.878H47.4146C49.6098 36.878 51.4756 37.6024 53.0122 39.0512C54.5488 40.5 55.3171 42.4098 55.3171 44.7805V47.4146L34.2439 54L15.8049 48.8634V52.6829H0ZM5.26829 47.4146H10.5366V28.9756H5.26829V47.4146Z" fill="#5E0F5E"/>
</svg>
