<svg width="50" height="50" viewBox="0 0 50 50" fill="none" xmlns="http://www.w3.org/2000/svg">
<g clip-path="url(#clip0_959_467)">
<path d="M14.9985 15.4309H12.2374L19.7651 36.7099L23.9793 24.6671L20.712 15.4309H17.7987V13.4033H30.6996V15.4309H27.6785L35.2061 36.7099L37.912 28.9772C41.4615 19.0702 35.0027 15.9842 35.0027 13.7732C35.0027 11.5622 36.7951 9.76996 39.006 9.76996C39.1256 9.76996 39.2417 9.77643 39.3556 9.78705C35.6094 6.25065 30.5581 4.082 24.9998 4.082C17.737 4.082 11.3396 7.78402 7.58936 13.4033H14.9983V15.4309H14.9985Z" fill="#00769D"/>
<path d="M4.08203 25C4.08203 33.0085 8.5833 39.9647 15.1931 43.4797L5.75323 16.7953C4.67789 19.3145 4.08203 22.0876 4.08203 25Z" fill="#00769D"/>
<path d="M43.2048 14.6923C43.504 16.454 43.4134 18.4342 42.9542 20.422H43.0374L42.7211 21.3258C42.5337 21.9784 42.2977 22.6459 42.0297 23.3019L34.832 43.4662C41.428 39.9469 45.9178 32.9982 45.9178 24.9999C45.9178 21.2519 44.9311 17.7348 43.2048 14.6923Z" fill="#00769D"/>
<path d="M18.5487 44.9024C20.5809 45.5607 22.7485 45.9178 25.0001 45.9178C27.1476 45.9178 29.2193 45.5937 31.1696 44.9925L25.0509 27.6962L18.5487 44.9024Z" fill="#00769D"/>
<path d="M42.6776 7.32229C37.9557 2.60044 31.6776 0 24.9999 0C18.3221 0 12.0441 2.60044 7.32229 7.32229C2.60044 12.0441 0 18.3222 0 25C0 31.6777 2.60044 37.9557 7.32229 42.6776C12.0441 47.3994 18.3223 49.9999 25 49.9999C31.6777 49.9999 37.9557 47.3994 42.6777 42.6776C47.3996 37.9557 50 31.6776 50 25C49.9999 18.3222 47.3994 12.0441 42.6776 7.32229ZM24.9999 48.2363C12.1873 48.2363 1.76356 37.8126 1.76356 25C1.76356 12.1874 12.1873 1.76356 24.9999 1.76356C37.8124 1.76356 48.2362 12.1874 48.2362 25C48.2362 37.8126 37.8126 48.2363 24.9999 48.2363Z" fill="#00769D"/>
</g>
<defs>
<clipPath id="clip0_959_467">
<rect width="50" height="50" fill="white"/>
</clipPath>
</defs>
</svg>
